<svg xmlns="http://www.w3.org/2000/svg" viewBox="0 0 24 30" fill="none" x="0px" y="0px"><path d="M4 4H8V8H4V4Z" fill="black"/><path d="M10 4H14V8H10V4Z" fill="black"/><path d="M16 4H20V8H16V4Z" fill="black"/><path d="M4 10H8V14H4V10Z" fill="black"/><path d="M10 10H14V14H10V10Z" fill="black"/><path d="M16 10H20V14H16V10Z" fill="black"/><path d="M4 16H8V20H4V16Z" fill="black"/><path d="M10 16H14V20H10V16Z" fill="black"/><path d="M16 16H20V20H16V16Z" fill="black"/><text x="0" y="39" fill="#000000" font-size="5px" font-weight="bold" font-family="'Helvetica Neue', Helvetica, Arial-Unicode, Arial, Sans-serif">Created by Bradley Wilton</text><text x="0" y="44" fill="#000000" font-size="5px" font-weight="bold" font-family="'Helvetica Neue', Helvetica, Arial-Unicode, Arial, Sans-serif">from the Noun Project</text></svg>